<svg xmlns="http://www.w3.org/2000/svg" viewBox="0 0 320 400" width="320" height="400" role="img" stroke-linecap="round" stroke-linejoin="round" font-family="system-ui, -apple-system, 'Segoe UI', Roboto, sans-serif">
<title>Zum Schluss fragt dein Handy, ob das Symbol auf den Startbildschirm soll: Tippe auf „Zum Startbildschirm hinzufügen“.</title>
<defs><clipPath id="c"><rect x="8" y="8" width="300" height="380" rx="18"/></clipPath><clipPath id="p"><rect x="36" y="-120" width="248" height="490" rx="32"/></clipPath></defs><rect x="12" y="12" width="300" height="380" rx="18" fill="#a3552e"/><rect x="8" y="8" width="300" height="380" rx="18" fill="#f7f0de" stroke="#1b1a17" stroke-width="2"/>
<g clip-path="url(#c)"><rect x="36" y="-120" width="248" height="490" rx="32" fill="#f3ead8"/>
<g clip-path="url(#p)"><rect x="36" y="-120" width="248" height="500" fill="#ebe1c7"/><rect x="36" y="-120" width="248" height="490" fill="#1b1a17" opacity="0.4"/><path d="M36 372V150Q36 124 62 124H258Q284 124 284 150V372Z" fill="#f3ead8" stroke="#1b1a17" stroke-width="2"/>
<g><rect x="132" y="146" width="56" height="56" rx="13.44" fill="#4b9aaa" stroke="#1b1a17" stroke-width="2"/><path transform="translate(132 146) scale(0.56)" fill="#eccc6e" d="M24 74V26H40L50 46L60 26H76V74H62V47L52 66H48L38 47V74Z"/></g><text x="160" y="226" font-size="14" fill="#1b1a17" text-anchor="middle">Mahalle</text>
<rect x="52" y="250" width="216" height="42" rx="21" fill="#1b1a17"/><text x="160" y="276" font-size="11" fill="#f3ead8" font-weight="700" text-anchor="middle">Zum Startbildschirm hinzufügen</text>
<text x="160" y="326" font-size="14" fill="#1b1a17" text-anchor="middle">Abbrechen</text>
<rect x="47" y="245" width="226" height="52" rx="26" fill="none" stroke="#b23a5b" stroke-width="3"/><circle cx="273" cy="245" r="11" fill="#b23a5b"/><text x="273" y="250" font-size="14" font-weight="700" fill="#fff" text-anchor="middle">5</text></g>
<rect x="36" y="-120" width="248" height="490" rx="32" fill="none" stroke="#1b1a17" stroke-width="2"/></g>
</svg>
