<svg xmlns="http://www.w3.org/2000/svg" viewBox="0 0 320 400" width="320" height="400" role="img" stroke-linecap="round" stroke-linejoin="round" font-family="system-ui, -apple-system, 'Segoe UI', Roboto, sans-serif">
<title>Ein Fenster fragt „App installieren“: Tippe auf „Installieren“.</title>
<defs><clipPath id="c"><rect x="8" y="8" width="300" height="380" rx="18"/></clipPath><clipPath id="p"><rect x="36" y="28" width="248" height="520" rx="32"/></clipPath></defs><rect x="12" y="12" width="300" height="380" rx="18" fill="#a3552e"/><rect x="8" y="8" width="300" height="380" rx="18" fill="#f7f0de" stroke="#1b1a17" stroke-width="2"/>
<g clip-path="url(#c)"><rect x="36" y="28" width="248" height="520" rx="32" fill="#f3ead8"/>
<g clip-path="url(#p)"><rect x="52" y="60" width="216" height="70" rx="10" fill="#ebe1c7"/><rect x="52" y="146" width="170" height="8" rx="4" fill="#ebe1c7"/><rect x="52" y="164" width="200" height="8" rx="4" fill="#ebe1c7"/><rect x="52" y="182" width="120" height="8" rx="4" fill="#ebe1c7"/><rect x="52" y="206" width="104" height="60" rx="10" fill="#ebe1c7"/><rect x="164" y="206" width="104" height="60" rx="10" fill="#ebe1c7"/><rect x="52" y="260" width="216" height="70" rx="10" fill="#ebe1c7"/><rect x="52" y="346" width="170" height="8" rx="4" fill="#ebe1c7"/><rect x="52" y="364" width="200" height="8" rx="4" fill="#ebe1c7"/><rect x="52" y="382" width="120" height="8" rx="4" fill="#ebe1c7"/><rect x="52" y="406" width="104" height="60" rx="10" fill="#ebe1c7"/><rect x="164" y="406" width="104" height="60" rx="10" fill="#ebe1c7"/><rect x="36" y="28" width="248" height="520" fill="#1b1a17" opacity="0.4"/><rect x="48" y="112" width="224" height="196" rx="18" fill="#f3ead8" stroke="#1b1a17" stroke-width="2"/>
<text x="66" y="146" font-size="16" fill="#1b1a17" font-weight="700">App installieren</text>
<circle cx="84" cy="198" r="18" fill="#4b9aaa" stroke="#1b1a17" stroke-width="2"/><path transform="translate(66 180) scale(0.36)" fill="#eccc6e" d="M24 74V26H40L50 46L60 26H76V74H62V47L52 66H48L38 47V74Z"/><text x="114" y="194" font-size="15" fill="#1b1a17">Mahalle</text><text x="114" y="214" font-size="13" fill="#7a7264">mahalle.digital</text>
<text x="112" y="280" font-size="13" fill="#1b1a17" text-anchor="middle">Abbrechen</text>
<rect x="168" y="256" width="94" height="38" rx="12" fill="#1b1a17"/><text x="215" y="280" font-size="13" fill="#f3ead8" font-weight="700" text-anchor="middle">Installieren</text>
<rect x="163" y="251" width="104" height="48" rx="15" fill="none" stroke="#b23a5b" stroke-width="3"/><circle cx="267" cy="251" r="11" fill="#b23a5b"/><text x="267" y="256" font-size="14" font-weight="700" fill="#fff" text-anchor="middle">4</text></g>
<rect x="36" y="28" width="248" height="520" rx="32" fill="none" stroke="#1b1a17" stroke-width="2"/></g>
</svg>
